<svg width="122" height="45" viewBox="0 0 122 45" fill="none" xmlns="http://www.w3.org/2000/svg">
<g clip-path="url(#clip0)">
<path d="M46.2107 0.699219H27.0095H26.9827C25.5386 0.7261 24.3887 1.9089 24.3887 3.36051C24.3887 4.81212 25.5386 5.99492 26.9827 6.0218H27.0095H46.2107C47.6548 6.0218 48.8582 4.839 48.8582 3.36051C48.8582 1.88201 47.6815 0.699219 46.2107 0.699219Z" fill="#00A19B"/>
<path d="M46.2107 10.6992H27.0095H26.9827C25.5386 10.7261 24.3887 11.9089 24.3887 13.3605C24.3887 14.8121 25.5386 15.9949 26.9827 16.0218H27.0095H46.2107C47.6548 16.0218 48.8582 14.839 48.8582 13.3605C48.8582 11.882 47.6815 10.6992 46.2107 10.6992Z" fill="#00A19B"/>
<path d="M46.2107 20.6719H27.0095H26.9827C25.5386 20.6988 24.3887 21.8816 24.3887 23.3332C24.3887 24.7848 25.5386 25.9676 26.9827 25.9945H27.0095H46.2107C47.6548 25.9945 48.8582 24.8117 48.8582 23.3332C48.8582 21.8547 47.6815 20.6719 46.2107 20.6719Z" fill="#00A19B"/>
<path d="M8.77099 0.699219H2.64692C2.64692 0.699219 2.64692 0.699219 2.62018 0.699219C2.59344 0.699219 2.62018 0.699219 2.59344 0.699219C1.17608 0.699219 -0.000601094 1.88201 -0.000601094 3.33363C-0.000601094 4.78524 1.17608 5.96804 2.62018 5.99492H8.77099C12.7824 5.99492 16.045 9.27449 16.045 13.3067C16.045 17.339 12.7824 20.6186 8.77099 20.6186H2.64692C2.64692 20.6186 2.64692 20.6186 2.62018 20.6186C2.59344 20.6186 2.62018 20.6186 2.59344 20.6186C1.14933 20.6186 -0.0273438 21.8014 -0.0273438 23.2799C-0.0273438 24.7315 1.14933 25.9143 2.59344 25.9412H8.74425C15.6706 25.9412 21.2866 20.296 21.2866 13.3336C21.3133 6.34438 15.6706 0.699219 8.77099 0.699219Z" fill="#00A19B"/>
<path d="M64.5566 5.99492H70.2795C70.2795 5.99492 70.2795 5.99492 70.3062 5.99492C70.333 5.99492 70.3062 5.99492 70.333 5.99492H70.7341V5.96804C71.991 5.75298 72.9538 4.67771 72.9538 3.36051C72.9538 2.0433 71.991 0.941154 70.7341 0.752982V0.699219H64.5833C57.657 0.699219 52.041 6.34438 52.041 13.3067C52.041 20.2691 57.657 25.9143 64.5833 25.9143H70.3062C70.3062 25.9143 70.3062 25.9143 70.333 25.9143C70.3597 25.9143 70.333 25.9143 70.3597 25.9143H70.7609V25.8874C72.0178 25.6723 72.9805 24.5971 72.9805 23.2799C72.9805 21.9627 72.0178 20.8605 70.7609 20.6723V20.6455H64.6101C60.5987 20.6455 57.3361 17.3659 57.3361 13.3336C57.3093 9.27449 60.5719 5.99492 64.5566 5.99492Z" fill="#00A19B"/>
<path d="M102.023 22.957L90.7909 1.39785C90.3631 0.537634 89.4538 0 88.4643 0C87.4748 0 86.5923 0.537634 86.1377 1.45161L74.8256 22.9301C74.5849 23.3333 74.4512 23.7903 74.4512 24.3011C74.4512 25.7527 75.6278 26.9624 77.0987 26.9624C78.1684 26.9624 79.0776 26.3172 79.5055 25.4032L88.4643 8.33333L97.3696 25.4301C97.7975 26.3172 98.7068 26.9355 99.7497 26.9355C101.194 26.9355 102.397 25.7527 102.397 24.2742C102.371 23.8172 102.264 23.3602 102.023 22.957Z" fill="#00A19B"/>
<path d="M121.866 10.2415V10.1609C121.839 8.73615 120.663 7.58024 119.219 7.58024C117.774 7.58024 116.625 8.73615 116.571 10.1609V10.2146V14.9996L109.778 14.8652L117.186 4.11249C117.186 4.08561 117.213 4.08561 117.213 4.05873L117.24 4.03185C117.507 3.62862 117.667 3.11787 117.667 2.58024C117.667 1.12862 116.491 -0.0810547 115.02 -0.0810547C114.164 -0.0810547 113.415 0.322171 112.934 0.967332L102.638 15.8867C102.077 16.6931 102.023 17.7415 102.451 18.6017C102.906 19.462 103.788 20.0265 104.751 20.0534L116.571 20.2684V24.1931C116.571 25.6448 117.748 26.8544 119.219 26.8544C120.663 26.8544 121.866 25.6716 121.866 24.1931V10.2415Z" fill="#410099"/>
<path d="M58.5933 44.8391H57.4433C57.3631 44.8391 57.3096 44.8122 57.2829 44.7315L56.7213 42.6885C56.6945 42.6079 56.6411 42.6079 56.5608 42.6079H54.0738C53.9935 42.6079 53.94 42.6348 53.9133 42.6885L53.3517 44.7315C53.325 44.8122 53.2715 44.8391 53.1912 44.8391H52.0413C51.9343 44.8391 51.8809 44.7853 51.8809 44.7047C51.8809 44.6509 51.9611 44.409 52.0413 44.1939L54.7423 35.2423C54.7691 35.1616 54.8226 35.1348 54.9028 35.1348H55.7318C55.812 35.1348 55.8655 35.1616 55.8923 35.2423L58.62 44.2208C58.6735 44.409 58.7537 44.624 58.7537 44.7047C58.7805 44.8122 58.7002 44.8391 58.5933 44.8391ZM56.2132 40.8875L55.5446 38.2799C55.5179 38.1455 55.3841 37.7154 55.3574 37.6079H55.3039C55.2772 37.7423 55.1435 38.1993 55.1167 38.3068L54.4482 40.8337C54.3947 41.0219 54.3412 41.1832 54.3412 41.2369C54.3412 41.2907 54.3947 41.3713 54.5016 41.3713H56.1062C56.2132 41.3713 56.2667 41.3176 56.2667 41.2369C56.2934 41.1832 56.2667 41.0756 56.2132 40.8875Z" fill="#410099"/>
<path d="M65.4663 44.8391H62.3909C62.284 44.8391 62.2305 44.7853 62.2305 44.6778V35.2961C62.2305 35.1885 62.284 35.1348 62.3909 35.1348H65.4663C67.1511 35.1348 68.2208 36.21 68.2208 37.9036V42.0702C68.2208 43.7907 67.1511 44.8391 65.4663 44.8391ZM66.8302 37.7692C66.8302 37.0165 66.2151 36.3713 65.4396 36.3713H63.7548C63.6478 36.3713 63.5943 36.4251 63.5943 36.5326V43.4681C63.5943 43.5756 63.6478 43.6294 63.7548 43.6294H65.4396C66.1884 43.6294 66.8302 43.0111 66.8302 42.2315V37.7692Z" fill="#410099"/>
<path d="M78.0348 35.538L75.2536 44.7315C75.2268 44.8122 75.1734 44.8391 75.0931 44.8391H74.2641C74.1839 44.8391 74.1304 44.8122 74.1037 44.7315L71.3759 35.6993C71.2957 35.4573 71.2422 35.3229 71.2422 35.2692C71.2422 35.1885 71.2957 35.1348 71.4026 35.1348H72.5526C72.6328 35.1348 72.6863 35.1616 72.713 35.2423L74.478 41.667C74.5048 41.7745 74.6118 42.1778 74.6385 42.2853H74.7187C74.7455 42.1509 74.8524 41.7745 74.8792 41.667L76.6442 35.2423C76.6709 35.1616 76.7244 35.1348 76.8047 35.1348H77.9546C78.0616 35.1348 78.1151 35.1885 78.1151 35.2692C78.1151 35.3229 78.0616 35.4305 78.0348 35.538Z" fill="#410099"/>
<path d="M82.822 44.8391H81.7523C81.6453 44.8391 81.5918 44.7853 81.5918 44.6778V35.2961C81.5918 35.1885 81.6453 35.1348 81.7523 35.1348H82.822C82.9289 35.1348 82.9824 35.1885 82.9824 35.2961V44.6778C82.9557 44.8122 82.9289 44.8391 82.822 44.8391Z" fill="#410099"/>
<path d="M89.8822 45H89.2404C88.0102 45 87.3149 44.5162 86.9405 43.871C86.8068 43.656 86.7266 43.4947 86.7266 43.414C86.7266 43.3603 86.7533 43.3334 86.8068 43.2796L87.5823 42.8764C87.6626 42.8226 87.7963 42.742 87.8498 42.742C87.9032 42.742 87.93 42.7689 87.9835 42.8495C88.2509 43.414 88.759 43.7366 89.2671 43.7366H89.9089C90.6577 43.7366 91.2996 43.1183 91.2996 42.3388C91.2996 41.371 90.4171 40.9678 89.4543 40.5108C88.2509 39.9732 86.9405 39.3549 86.9405 37.5538C86.9405 36.0216 88.0102 34.9463 89.695 34.9463H89.9357C91.1658 34.9463 91.8612 35.457 92.2623 36.0753C92.3425 36.2097 92.4762 36.4248 92.4762 36.4785C92.4762 36.5323 92.4495 36.5861 92.396 36.613L91.567 37.0162C91.4868 37.0699 91.4065 37.0968 91.3263 37.0968C91.2728 37.0968 91.2461 37.0699 91.1926 37.0162C90.9252 36.4517 90.4171 36.156 89.9089 36.156H89.6683C88.9195 36.156 88.2776 36.7742 88.2776 37.5538C88.2776 38.4409 89.2404 38.7904 90.2566 39.2742C91.4065 39.785 92.6367 40.5108 92.6367 42.3388C92.6367 43.9248 91.567 45 89.8822 45Z" fill="#410099"/>
<path d="M99.6954 45H99.2408C97.556 45 96.4863 43.9247 96.4863 42.3925V37.6075C96.4863 36.0753 97.556 35 99.2408 35H99.6954C101.38 35 102.45 36.0753 102.45 37.6075V42.3925C102.45 43.9247 101.38 45 99.6954 45ZM101.086 37.6075C101.086 36.8548 100.471 36.2097 99.6954 36.2097H99.2408C98.492 36.2097 97.8502 36.828 97.8502 37.6075V42.3925C97.8502 43.1452 98.4653 43.7903 99.2408 43.7903H99.6954C100.444 43.7903 101.086 43.172 101.086 42.3925V37.6075Z" fill="#410099"/>
<path d="M112.372 44.8386H111.196C111.142 44.8386 111.062 44.7848 111.062 44.731L109.645 40.6181C109.618 40.5644 109.591 40.5375 109.511 40.5375H107.987C107.88 40.5375 107.826 40.5912 107.826 40.6988V44.7041C107.826 44.8117 107.773 44.8654 107.666 44.8654H106.596C106.489 44.8654 106.436 44.8117 106.436 44.7041V35.3224C106.436 35.2149 106.489 35.1611 106.596 35.1611H109.671C111.356 35.1611 112.426 36.2364 112.426 37.93V38.0912C112.426 38.9246 111.704 39.8923 111.089 40.1611C111.035 40.188 111.009 40.2149 111.009 40.2955C111.009 40.3493 111.062 40.4837 111.142 40.6719L112.426 44.3547C112.479 44.5429 112.56 44.6773 112.56 44.731C112.533 44.8117 112.479 44.8386 112.372 44.8386ZM111.062 37.7687C111.062 37.016 110.447 36.3708 109.671 36.3708H107.987C107.88 36.3708 107.826 36.4246 107.826 36.5321V39.1396C107.826 39.2472 107.88 39.3009 107.987 39.3009H109.671C110.42 39.3009 111.062 38.6826 111.062 37.9031V37.7687Z" fill="#410099"/>
<path d="M121.867 35.5918L119.406 40.1885C119.326 40.3498 119.299 40.4842 119.299 40.6724V44.7047C119.299 44.8122 119.246 44.8659 119.139 44.8659H118.069C117.962 44.8659 117.909 44.8122 117.909 44.7047V40.6455C117.909 40.4573 117.882 40.3229 117.802 40.1885L115.315 35.5111C115.261 35.4305 115.234 35.3498 115.234 35.2692C115.234 35.1885 115.288 35.1348 115.395 35.1348H116.652C116.705 35.1348 116.759 35.1885 116.785 35.2154L118.47 38.7369C118.497 38.8176 118.55 38.8713 118.604 38.8713C118.657 38.8713 118.711 38.8176 118.738 38.7369L120.422 35.2154C120.449 35.1616 120.503 35.1348 120.556 35.1348H121.813C121.92 35.1348 121.974 35.1885 121.974 35.2692C122 35.3498 121.947 35.4305 121.867 35.5918Z" fill="#410099"/>
</g>
<defs>
<clipPath id="clip0">
<rect width="122" height="45" fill="white"/>
</clipPath>
</defs>
</svg>
